<svg width="81" height="80" viewBox="0 0 81 80" fill="none" xmlns="http://www.w3.org/2000/svg">
<g clip-path="url(#clip0_143_482)">
<g filter="url(#filter0_d_143_482)">
<path d="M19.1721 40.3803C19.1721 28.6593 28.7801 19.1576 40.5011 19.1576C52.2221 19.1576 61.8301 28.6593 61.8301 40.3803C61.8301 52.1013 52.2221 61.6031 40.5011 61.6031C28.7801 61.6031 19.1721 52.1013 19.1721 40.3803Z" fill="white" fill-opacity="0.2"/>
</g>
<path fill-rule="evenodd" clip-rule="evenodd" d="M40.0459 60.763C51.3719 60.763 60.7057 51.6205 60.8932 40.3425C61.0813 29.0645 52.0519 19.9219 40.7259 19.9219C29.4 19.9219 20.0663 29.0645 19.8784 40.3425C19.6907 51.6205 28.7199 60.763 40.0459 60.763ZM40.0332 61.5277C51.7831 61.5277 61.466 52.0428 61.6611 40.3425C61.8557 28.6424 52.4884 19.1576 40.7386 19.1576C28.9888 19.1576 19.3057 28.6424 19.1109 40.3425C18.9161 52.0428 28.2833 61.5277 40.0332 61.5277Z" fill="white" stroke="white" stroke-width="3"/>
<g opacity="0.7">
<mask id="path-4-inside-1_143_482" fill="white">
<path fill-rule="evenodd" clip-rule="evenodd" d="M39.7655 78.7593C61.2287 78.7593 78.9168 61.4332 79.2729 40.0608C79.6287 18.6882 62.5175 1.36229 41.0541 1.36229C19.5907 1.36229 1.90268 18.6882 1.54682 40.0608C1.19096 61.4332 18.302 78.7593 39.7655 78.7593ZM39.7527 79.5236C61.6399 79.5236 79.6775 61.8556 80.0403 40.0608C80.4031 18.2661 62.9544 0.597961 41.0669 0.597961C19.1795 0.597961 1.14213 18.2661 0.779241 40.0608C0.41635 61.8556 17.8654 79.5236 39.7527 79.5236Z"/>
</mask>
<path fill-rule="evenodd" clip-rule="evenodd" d="M39.7655 78.7593C61.2287 78.7593 78.9168 61.4332 79.2729 40.0608C79.6287 18.6882 62.5175 1.36229 41.0541 1.36229C19.5907 1.36229 1.90268 18.6882 1.54682 40.0608C1.19096 61.4332 18.302 78.7593 39.7655 78.7593ZM39.7527 79.5236C61.6399 79.5236 79.6775 61.8556 80.0403 40.0608C80.4031 18.2661 62.9544 0.597961 41.0669 0.597961C19.1795 0.597961 1.14213 18.2661 0.779241 40.0608C0.41635 61.8556 17.8654 79.5236 39.7527 79.5236Z" fill="white"/>
<path d="M79.2729 40.0608L80.2728 40.0775V40.0774L79.2729 40.0608ZM1.54682 40.0608L2.54668 40.0774L1.54682 40.0608ZM80.0403 40.0608L79.0404 40.0442L80.0403 40.0608ZM0.779241 40.0608L1.7791 40.0774L0.779241 40.0608ZM39.7655 79.7593C61.7707 79.7593 79.9075 61.9994 80.2728 40.0775L78.273 40.0441C77.9261 60.8671 60.6867 77.7593 39.7655 77.7593V79.7593ZM80.2728 40.0774C80.6379 18.1422 63.0723 0.362294 41.0541 0.362294V2.36229C61.9627 2.36229 78.6194 19.2342 78.273 40.0442L80.2728 40.0774ZM41.0541 0.362294C19.0487 0.362294 0.911968 18.1221 0.546959 40.0442L2.54668 40.0774C2.89339 19.2543 20.1327 2.36229 41.0541 2.36229V0.362294ZM0.546959 40.0442C0.181725 61.9793 17.7472 79.7593 39.7655 79.7593V77.7593C18.8569 77.7593 2.20019 60.8872 2.54668 40.0774L0.546959 40.0442ZM39.7527 80.5236C62.182 80.5236 80.6682 62.4217 81.0402 40.0774L79.0404 40.0442C78.6868 61.2894 61.0979 78.5236 39.7527 78.5236V80.5236ZM81.0402 40.0774C81.4123 17.72 63.5092 -0.402039 41.0669 -0.402039V1.59796C62.3996 1.59796 79.3939 18.8121 79.0404 40.0442L81.0402 40.0774ZM41.0669 -0.402039C18.6375 -0.402039 0.151417 17.6999 -0.220621 40.0442L1.7791 40.0774C2.13284 18.8322 19.7215 1.59796 41.0669 1.59796V-0.402039ZM-0.220621 40.0442C-0.592881 62.4016 17.3105 80.5236 39.7527 80.5236V78.5236C18.4202 78.5236 1.42558 61.3095 1.7791 40.0774L-0.220621 40.0442Z" fill="white" mask="url(#path-4-inside-1_143_482)"/>
</g>
<path d="M37.4155 33.0899L46.6239 40.0608L37.1833 47.0318L37.4155 33.0899Z" fill="white"/>
</g>
<defs>
<filter id="filter0_d_143_482" x="-12.8279" y="7.15759" width="106.658" height="106.445" filterUnits="userSpaceOnUse" color-interpolation-filters="sRGB">
<feFlood flood-opacity="0" result="BackgroundImageFix"/>
<feColorMatrix in="SourceAlpha" type="matrix" values="0 0 0 0 0 0 0 0 0 0 0 0 0 0 0 0 0 0 127 0" result="hardAlpha"/>
<feMorphology radius="3" operator="dilate" in="SourceAlpha" result="effect1_dropShadow_143_482"/>
<feOffset dy="20"/>
<feGaussianBlur stdDeviation="14.5"/>
<feComposite in2="hardAlpha" operator="out"/>
<feColorMatrix type="matrix" values="0 0 0 0 0.828507 0 0 0 0 0.845284 0 0 0 0 0.929167 0 0 0 0.49 0"/>
<feBlend mode="normal" in2="BackgroundImageFix" result="effect1_dropShadow_143_482"/>
<feBlend mode="normal" in="SourceGraphic" in2="effect1_dropShadow_143_482" result="shape"/>
</filter>
<clipPath id="clip0_143_482">
<rect x="0.12207" y="0.597961" width="80.756" height="79.1879" rx="39.594" fill="white"/>
</clipPath>
</defs>
</svg>
